<svg width="49" height="45" viewBox="0 0 49 45" fill="none" xmlns="http://www.w3.org/2000/svg">
<path d="M32.5 25V12.5" stroke="#ACAFB5" stroke-width="2.7" stroke-linecap="round" stroke-linejoin="round"/>
<path d="M25 25V5" stroke="#ACAFB5" stroke-width="2.7" stroke-linecap="round" stroke-linejoin="round"/>
<path d="M17.5 25V17.5" stroke="#ACAFB5" stroke-width="2.7" stroke-linecap="round" stroke-linejoin="round"/>
<path d="M2.95633 33.15C3.903 33.15 4.66966 33.39 5.25633 33.87C5.84966 34.35 6.14633 35.2333 6.14633 36.52C6.14633 37.8067 5.84633 38.71 5.24633 39.23C4.65299 39.7433 3.92633 40 3.06633 40H1.59633V33.15H2.95633ZM2.19633 33.65V39.5H3.10633C4.713 39.5 5.51633 38.5067 5.51633 36.52C5.51633 35.7333 5.39966 35.13 5.16633 34.71C4.933 34.29 4.63633 34.01 4.27633 33.87C3.92299 33.7233 3.50966 33.65 3.03633 33.65H2.19633ZM11.017 38.84C11.017 39.1133 11.0504 39.31 11.117 39.43C11.1904 39.55 11.3037 39.64 11.457 39.7L11.327 40.11C11.087 40.0633 10.9004 39.9733 10.767 39.84C10.6404 39.7067 10.557 39.5033 10.517 39.23C10.157 39.8167 9.6137 40.11 8.88703 40.11C8.38703 40.11 7.99036 39.97 7.69703 39.69C7.41036 39.4033 7.26703 39.0233 7.26703 38.55C7.26703 38.01 7.45703 37.5933 7.83703 37.3C8.2237 37.0067 8.75703 36.86 9.43703 36.86H10.437V36.35C10.437 35.93 10.3437 35.6267 10.157 35.44C9.97036 35.2467 9.66036 35.15 9.22703 35.15C8.82703 35.15 8.3537 35.25 7.80703 35.45L7.65703 35.01C8.2437 34.7767 8.7937 34.66 9.30703 34.66C10.447 34.66 11.017 35.2133 11.017 36.32V38.84ZM8.98703 39.64C9.6137 39.64 10.097 39.3333 10.437 38.72V37.28H9.52703C8.9937 37.28 8.58703 37.3833 8.30703 37.59C8.02703 37.7967 7.88703 38.1067 7.88703 38.52C7.88703 38.88 7.9837 39.1567 8.17703 39.35C8.37036 39.5433 8.64036 39.64 8.98703 39.64ZM14.3107 34.66C14.6374 34.66 14.934 34.71 15.2007 34.81C15.4674 34.9033 15.7274 35.0467 15.9807 35.24L15.7107 35.62C15.4707 35.4533 15.244 35.3333 15.0307 35.26C14.8174 35.18 14.584 35.14 14.3307 35.14C13.984 35.14 13.704 35.22 13.4907 35.38C13.2774 35.54 13.1707 35.7533 13.1707 36.02C13.1707 36.2733 13.2607 36.47 13.4407 36.61C13.6274 36.75 13.9607 36.8833 14.4407 37.01C15.034 37.1633 15.4607 37.3567 15.7207 37.59C15.9874 37.8233 16.1207 38.1567 16.1207 38.59C16.1207 39.0567 15.9407 39.4267 15.5807 39.7C15.2207 39.9733 14.7707 40.11 14.2307 40.11C13.8307 40.11 13.4807 40.0533 13.1807 39.94C12.8807 39.82 12.6074 39.6533 12.3607 39.44L12.6807 39.07C12.914 39.2567 13.1507 39.3967 13.3907 39.49C13.6374 39.5767 13.914 39.62 14.2207 39.62C14.6074 39.62 14.9174 39.5333 15.1507 39.36C15.3907 39.18 15.5107 38.9333 15.5107 38.62C15.5107 38.4067 15.4707 38.2333 15.3907 38.1C15.3107 37.9667 15.174 37.8533 14.9807 37.76C14.7874 37.66 14.504 37.56 14.1307 37.46C13.5774 37.3133 13.1774 37.13 12.9307 36.91C12.6907 36.69 12.5707 36.3967 12.5707 36.03C12.5707 35.77 12.6474 35.5367 12.8007 35.33C12.954 35.1167 13.1607 34.9533 13.4207 34.84C13.6874 34.72 13.984 34.66 14.3107 34.66ZM19.9794 34.66C20.446 34.66 20.806 34.8033 21.0594 35.09C21.3127 35.37 21.4394 35.76 21.4394 36.26V40H20.8594V36.34C20.8594 35.5333 20.5294 35.13 19.8694 35.13C19.536 35.13 19.2394 35.2233 18.9794 35.41C18.726 35.59 18.4827 35.8567 18.2494 36.21V40H17.6694V32.64L18.2494 32.57V35.64C18.716 34.9867 19.2927 34.66 19.9794 34.66ZM25.6592 34.66C26.2659 34.66 26.7359 34.8933 27.0692 35.36C27.4026 35.8267 27.5692 36.4933 27.5692 37.36C27.5692 38.2067 27.3926 38.8767 27.0392 39.37C26.6926 39.8633 26.2059 40.11 25.5792 40.11C25.2659 40.11 24.9792 40.04 24.7192 39.9C24.4659 39.76 24.2526 39.5733 24.0792 39.34L24.0192 40H23.5092V32.64L24.0892 32.57V35.5C24.5026 34.94 25.0259 34.66 25.6592 34.66ZM25.4692 39.63C25.9426 39.63 26.3059 39.44 26.5592 39.06C26.8192 38.6733 26.9492 38.1067 26.9492 37.36C26.9492 35.88 26.4792 35.14 25.5392 35.14C25.2259 35.14 24.9559 35.22 24.7292 35.38C24.5026 35.5333 24.2892 35.7533 24.0892 36.04V38.79C24.2559 39.05 24.4559 39.2567 24.6892 39.41C24.9226 39.5567 25.1826 39.63 25.4692 39.63ZM31.1198 34.66C31.8131 34.66 32.3531 34.9 32.7398 35.38C33.1331 35.8533 33.3298 36.5167 33.3298 37.37C33.3298 38.2167 33.1298 38.8867 32.7298 39.38C32.3364 39.8667 31.7964 40.11 31.1098 40.11C30.4164 40.11 29.8731 39.87 29.4798 39.39C29.0931 38.9033 28.8998 38.2367 28.8998 37.39C28.8998 36.8367 28.9898 36.3533 29.1698 35.94C29.3498 35.5267 29.6064 35.21 29.9398 34.99C30.2731 34.77 30.6664 34.66 31.1198 34.66ZM31.1198 35.15C30.6131 35.15 30.2198 35.34 29.9398 35.72C29.6598 36.1 29.5198 36.6567 29.5198 37.39C29.5198 38.1167 29.6564 38.67 29.9298 39.05C30.2098 39.43 30.6031 39.62 31.1098 39.62C31.6164 39.62 32.0098 39.43 32.2898 39.05C32.5764 38.67 32.7198 38.11 32.7198 37.37C32.7198 36.6433 32.5798 36.0933 32.2998 35.72C32.0264 35.34 31.6331 35.15 31.1198 35.15ZM38.185 38.84C38.185 39.1133 38.2183 39.31 38.285 39.43C38.3583 39.55 38.4717 39.64 38.625 39.7L38.495 40.11C38.255 40.0633 38.0683 39.9733 37.935 39.84C37.8083 39.7067 37.725 39.5033 37.685 39.23C37.325 39.8167 36.7817 40.11 36.055 40.11C35.555 40.11 35.1583 39.97 34.865 39.69C34.5783 39.4033 34.435 39.0233 34.435 38.55C34.435 38.01 34.625 37.5933 35.005 37.3C35.3917 37.0067 35.925 36.86 36.605 36.86H37.605V36.35C37.605 35.93 37.5117 35.6267 37.325 35.44C37.1383 35.2467 36.8283 35.15 36.395 35.15C35.995 35.15 35.5217 35.25 34.975 35.45L34.825 35.01C35.4117 34.7767 35.9617 34.66 36.475 34.66C37.615 34.66 38.185 35.2133 38.185 36.32V38.84ZM36.155 39.64C36.7817 39.64 37.265 39.3333 37.605 38.72V37.28H36.695C36.1617 37.28 35.755 37.3833 35.475 37.59C35.195 37.7967 35.055 38.1067 35.055 38.52C35.055 38.88 35.1517 39.1567 35.345 39.35C35.5383 39.5433 35.8083 39.64 36.155 39.64ZM42.3263 34.66C42.533 34.66 42.7063 34.68 42.8463 34.72L42.7363 35.27C42.5897 35.23 42.4363 35.21 42.2763 35.21C41.923 35.21 41.6363 35.34 41.4163 35.6C41.203 35.8533 41.023 36.2533 40.8763 36.8V40H40.2963V34.77H40.7963L40.8463 35.94C40.9863 35.5067 41.1763 35.1867 41.4163 34.98C41.663 34.7667 41.9663 34.66 42.3263 34.66ZM47.4541 32.64V40H46.9541L46.8841 39.2C46.5241 39.8067 46.0007 40.11 45.3141 40.11C44.7074 40.11 44.2274 39.87 43.8741 39.39C43.5274 38.9033 43.3541 38.2433 43.3541 37.41C43.3541 36.87 43.4341 36.3933 43.5941 35.98C43.7607 35.5667 43.9974 35.2433 44.3041 35.01C44.6174 34.7767 44.9841 34.66 45.4041 34.66C45.9974 34.66 46.4874 34.8967 46.8741 35.37V32.57L47.4541 32.64ZM45.4041 39.63C45.7374 39.63 46.0174 39.55 46.2441 39.39C46.4774 39.23 46.6874 38.9867 46.8741 38.66V35.93C46.5007 35.4033 46.0441 35.14 45.5041 35.14C45.0307 35.14 44.6541 35.3367 44.3741 35.73C44.1007 36.1233 43.9674 36.68 43.9741 37.4C43.9741 38.12 44.1007 38.6733 44.3541 39.06C44.6074 39.44 44.9574 39.63 45.4041 39.63Z" fill="black"/>
</svg>
