<svg width="27" height="45" viewBox="0 0 27 45" fill="none" xmlns="http://www.w3.org/2000/svg">
<path d="M1 13.207L4.71813 9.78628M25.7875 13.207L22.0694 9.78627M22.0694 9.78627L13.7323 2.11613C13.541 1.94009 13.2466 1.94009 13.0552 2.11613L4.71813 9.78628M22.0694 9.78627V24.1092C22.0694 24.3854 21.8455 24.6092 21.5694 24.6092H5.21813C4.94199 24.6092 4.71813 24.3854 4.71813 24.1092V9.78628" stroke="#ACAFB5" stroke-width="2" stroke-linecap="round"/>
<path d="M5.34059 40V36.65H2.06059V40H1.46059V33.15H2.06059V36.14H5.34059V33.15H5.94059V40H5.34059ZM9.9098 34.66C10.6031 34.66 11.1431 34.9 11.5298 35.38C11.9231 35.8533 12.1198 36.5167 12.1198 37.37C12.1198 38.2167 11.9198 38.8867 11.5198 39.38C11.1265 39.8667 10.5865 40.11 9.8998 40.11C9.20647 40.11 8.66314 39.87 8.2698 39.39C7.88314 38.9033 7.6898 38.2367 7.6898 37.39C7.6898 36.8367 7.7798 36.3533 7.9598 35.94C8.1398 35.5267 8.39647 35.21 8.7298 34.99C9.06314 34.77 9.45647 34.66 9.9098 34.66ZM9.9098 35.15C9.40314 35.15 9.0098 35.34 8.7298 35.72C8.4498 36.1 8.3098 36.6567 8.3098 37.39C8.3098 38.1167 8.44647 38.67 8.7198 39.05C8.9998 39.43 9.39314 39.62 9.8998 39.62C10.4065 39.62 10.7998 39.43 11.0798 39.05C11.3665 38.67 11.5098 38.11 11.5098 37.37C11.5098 36.6433 11.3698 36.0933 11.0898 35.72C10.8165 35.34 10.4231 35.15 9.9098 35.15ZM18.9227 34.66C19.3427 34.66 19.6727 34.8033 19.9127 35.09C20.1594 35.3767 20.2827 35.7667 20.2827 36.26V40H19.7027V36.34C19.7027 35.9267 19.6227 35.6233 19.4627 35.43C19.3094 35.23 19.0927 35.13 18.8127 35.13C18.5194 35.13 18.256 35.2233 18.0227 35.41C17.7894 35.5967 17.5627 35.8633 17.3427 36.21V40H16.7627V36.34C16.7627 35.9267 16.6827 35.6233 16.5227 35.43C16.3694 35.23 16.1527 35.13 15.8727 35.13C15.5727 35.13 15.306 35.2233 15.0727 35.41C14.8394 35.5967 14.616 35.8633 14.4027 36.21V40H13.8227V34.77H14.3227L14.3727 35.66C14.5727 35.3467 14.8094 35.1033 15.0827 34.93C15.356 34.75 15.656 34.66 15.9827 34.66C16.316 34.66 16.596 34.7533 16.8227 34.94C17.0494 35.12 17.2027 35.3733 17.2827 35.7C17.4894 35.3733 17.7294 35.12 18.0027 34.94C18.2827 34.7533 18.5894 34.66 18.9227 34.66ZM26.0581 37.19C26.0581 37.3367 26.0514 37.4767 26.0381 37.61H22.5481C22.5814 38.29 22.7414 38.7967 23.0281 39.13C23.3214 39.4567 23.7048 39.62 24.1781 39.62C24.4514 39.62 24.6914 39.58 24.8981 39.5C25.1114 39.4133 25.3414 39.28 25.5881 39.1L25.8581 39.47C25.5981 39.6833 25.3314 39.8433 25.0581 39.95C24.7848 40.0567 24.4814 40.11 24.1481 40.11C23.4548 40.11 22.9114 39.8733 22.5181 39.4C22.1248 38.9267 21.9281 38.27 21.9281 37.43C21.9281 36.8767 22.0114 36.3933 22.1781 35.98C22.3514 35.56 22.5948 35.2367 22.9081 35.01C23.2281 34.7767 23.5981 34.66 24.0181 34.66C24.6848 34.66 25.1914 34.8867 25.5381 35.34C25.8848 35.7867 26.0581 36.4033 26.0581 37.19ZM25.4881 37.01C25.4881 36.4233 25.3648 35.9667 25.1181 35.64C24.8781 35.3067 24.5181 35.14 24.0381 35.14C23.6048 35.14 23.2548 35.3067 22.9881 35.64C22.7214 35.9733 22.5748 36.48 22.5481 37.16H25.4881V37.01Z" fill="black"/>
</svg>
