<svg width="29" height="44" viewBox="0 0 29 44" fill="none" xmlns="http://www.w3.org/2000/svg">
<path d="M10.6229 6.47465L10.6229 6.47459C10.6128 3.8126 12.5853 1.80469 14.8076 1.80469C17.0437 1.80469 18.9922 3.77895 18.9922 6.45396C18.9922 9.20965 17.0149 11.2619 14.8076 11.2619C12.5994 11.2619 10.6331 9.22034 10.6229 6.47465ZM10.7891 6.48129C10.7904 8.91098 12.4657 11.1266 14.8076 11.1266C17.1722 11.1266 18.826 8.87276 18.826 6.45396C18.826 4.03453 17.142 1.93994 14.8076 1.93994C12.4846 1.93994 10.7762 4.05947 10.7891 6.48129ZM22.1821 22.6092H7.42118C6.47136 22.6092 5.96034 22.4469 5.70783 22.2719C5.52882 22.1478 5.39087 21.9607 5.39087 21.4984C5.39087 20.1986 6.20635 18.5003 7.86672 17.0922C9.49986 15.7072 11.8757 14.6772 14.8076 14.6772C17.7393 14.6772 20.1119 15.7072 21.7418 17.0917C23.3989 18.4992 24.2124 20.1976 24.2124 21.4984C24.2124 21.9607 24.0744 22.1478 23.8954 22.2719C23.6429 22.4469 23.1319 22.6092 22.1821 22.6092ZM5.6636 21.1567C5.6636 21.4148 5.72837 21.8456 6.11169 22.1655C6.448 22.4461 6.84071 22.474 7.05423 22.474H22.549C22.7626 22.474 23.1553 22.4461 23.4916 22.1655C23.8749 21.8456 23.9397 21.4148 23.9397 21.1567C23.9397 20.449 23.6712 19.7022 23.2574 19.0171C22.8355 18.3186 22.2256 17.6214 21.4504 17.0029C19.8941 15.761 17.6419 14.8125 14.8076 14.8125C11.9679 14.8125 9.71279 15.7607 8.15472 17.0026C7.37872 17.6211 6.76833 18.3183 6.34615 19.0169C5.93208 19.7021 5.6636 20.4489 5.6636 21.1567Z" stroke="#ACAFB5" stroke-width="2"/>
<path d="M3.00125 32.15C3.81458 32.15 4.43792 32.32 4.87125 32.66C5.31125 32.9933 5.53125 33.5067 5.53125 34.2C5.53125 34.9333 5.30125 35.4733 4.84125 35.82C4.38792 36.16 3.76458 36.33 2.97125 36.33H1.99125V39H1.39125V32.15H3.00125ZM2.97125 35.84C3.59125 35.84 4.06792 35.7167 4.40125 35.47C4.73458 35.2233 4.90125 34.8033 4.90125 34.21C4.90125 33.65 4.73792 33.25 4.41125 33.01C4.09125 32.7633 3.61792 32.64 2.99125 32.64H1.99125V35.84H2.97125ZM8.87906 33.66C9.08573 33.66 9.25906 33.68 9.39906 33.72L9.28906 34.27C9.1424 34.23 8.98906 34.21 8.82906 34.21C8.47573 34.21 8.18906 34.34 7.96906 34.6C7.75573 34.8533 7.57573 35.2533 7.42906 35.8V39H6.84906V33.77H7.34906L7.39906 34.94C7.53906 34.5067 7.72906 34.1867 7.96906 33.98C8.21573 33.7667 8.51906 33.66 8.87906 33.66ZM12.0768 33.66C12.7701 33.66 13.3101 33.9 13.6968 34.38C14.0901 34.8533 14.2868 35.5167 14.2868 36.37C14.2868 37.2167 14.0868 37.8867 13.6868 38.38C13.2935 38.8667 12.7535 39.11 12.0668 39.11C11.3735 39.11 10.8301 38.87 10.4368 38.39C10.0501 37.9033 9.8568 37.2367 9.8568 36.39C9.8568 35.8367 9.9468 35.3533 10.1268 34.94C10.3068 34.5267 10.5635 34.21 10.8968 33.99C11.2301 33.77 11.6235 33.66 12.0768 33.66ZM12.0768 34.15C11.5701 34.15 11.1768 34.34 10.8968 34.72C10.6168 35.1 10.4768 35.6567 10.4768 36.39C10.4768 37.1167 10.6135 37.67 10.8868 38.05C11.1668 38.43 11.5601 38.62 12.0668 38.62C12.5735 38.62 12.9668 38.43 13.2468 38.05C13.5335 37.67 13.6768 37.11 13.6768 36.37C13.6768 35.6433 13.5368 35.0933 13.2568 34.72C12.9835 34.34 12.5901 34.15 12.0768 34.15ZM17.5297 31.57C18.0497 31.57 18.5397 31.6933 18.9997 31.94L18.7897 32.36C18.363 32.16 17.9497 32.06 17.5497 32.06C17.2097 32.06 16.963 32.13 16.8097 32.27C16.6564 32.4033 16.5797 32.63 16.5797 32.95V33.77H19.4997V39H18.9197V34.24H16.5797V39H15.9997V34.24H15.1397V33.77H15.9997V32.92C15.9997 32.4933 16.1297 32.1633 16.3897 31.93C16.6564 31.69 17.0364 31.57 17.5297 31.57ZM22.4945 39.11C22.2078 39.11 21.9811 39.0267 21.8145 38.86C21.6545 38.6933 21.5745 38.4467 21.5745 38.12V31.64L22.1545 31.57V38.1C22.1545 38.44 22.2945 38.61 22.5745 38.61C22.7145 38.61 22.8345 38.5867 22.9345 38.54L23.0945 38.97C22.9078 39.0633 22.7078 39.11 22.4945 39.11ZM28.1274 36.19C28.1274 36.3367 28.1208 36.4767 28.1074 36.61H24.6174C24.6508 37.29 24.8108 37.7967 25.0974 38.13C25.3908 38.4567 25.7741 38.62 26.2474 38.62C26.5208 38.62 26.7608 38.58 26.9674 38.5C27.1808 38.4133 27.4108 38.28 27.6574 38.1L27.9274 38.47C27.6674 38.6833 27.4008 38.8433 27.1274 38.95C26.8541 39.0567 26.5508 39.11 26.2174 39.11C25.5241 39.11 24.9808 38.8733 24.5874 38.4C24.1941 37.9267 23.9974 37.27 23.9974 36.43C23.9974 35.8767 24.0808 35.3933 24.2474 34.98C24.4208 34.56 24.6641 34.2367 24.9774 34.01C25.2974 33.7767 25.6674 33.66 26.0874 33.66C26.7541 33.66 27.2608 33.8867 27.6074 34.34C27.9541 34.7867 28.1274 35.4033 28.1274 36.19ZM27.5574 36.01C27.5574 35.4233 27.4341 34.9667 27.1874 34.64C26.9474 34.3067 26.5874 34.14 26.1074 34.14C25.6741 34.14 25.3241 34.3067 25.0574 34.64C24.7908 34.9733 24.6441 35.48 24.6174 36.16H27.5574V36.01Z" fill="black"/>
</svg>
